<svg xmlns="http://www.w3.org/2000/svg" height="48" viewBox="0 96 960 960" width="48"><path d="m479.435 959.783-52.957-47.826Q318.174 811.652 247.456 739.718q-70.717-71.935-112.5-129.283-41.782-57.348-58.065-104.196t-16.283-94.413q0-97.261 65.848-163.674Q192.304 181.739 289 181.739q55.13 0 104.065 24.935 48.935 24.935 86.37 72.804 42.435-49.869 89.587-73.804 47.152-23.935 100.848-23.935 97.26 0 163.391 66.413 66.13 66.413 66.13 163.674 0 47.565-16.565 94.131-16.565 46.565-58.065 103.913T712.544 739.435q-70.718 72.217-179.587 172.522l-53.522 47.826Z"/></svg>