<svg xmlns="http://www.w3.org/2000/svg" height="48" viewBox="0 96 960 960" width="48"><path d="M250.554 947.087q-58.635 0-100.138-41.497-41.503-41.496-41.503-100.199 0-59.117 41.613-100.298 41.613-41.18 99.474-41.18h58.913V487.087H250q-57.861 0-99.474-41.497-41.613-41.496-41.613-100.199 0-59.117 41.497-100.298 41.496-41.18 100.199-41.18 59.117 0 100.298 41.611 41.18 41.611 41.18 100.476v57.913h176.826V346q0-58.865 41.497-100.476 41.496-41.611 100.199-41.611 59.117 0 100.298 41.449 41.18 41.449 41.18 100.084 0 58.635-41.611 100.138Q768.865 487.087 710 487.087h-57.913v176.826H710q58.865 0 100.476 41.449t41.611 100.084q0 58.635-41.449 100.138-41.449 41.503-100.084 41.503-58.635 0-100.138-41.613-41.503-41.613-41.503-99.474v-58.913H392.087V806q0 57.861-41.449 99.474-41.449 41.613-100.084 41.613Zm-.019-83.174q24.353 0 41.365-17.037 17.013-17.037 17.013-41.376v-58.413H250.5q-24.339 0-41.376 17.003-17.037 17.004-17.037 41.294 0 23.873 17.047 41.201 17.048 17.328 41.401 17.328Zm460 0q24.353 0 41.365-17.047 17.013-17.048 17.013-41.401 0-24.353-16.872-41.365-16.873-17.013-41.308-17.013h-58.646v58.247q0 24.269 17.047 41.424 17.048 17.155 41.401 17.155Zm-318.448-200h176.826V487.087H392.087v176.826Zm-141.587-260h58.413v-58.646q0-24.435-17.003-41.308-17.003-16.872-41.294-16.872-23.873 0-41.201 17.003t-17.328 41.294q0 23.873 17.037 41.201t41.376 17.328Zm401.587 0h58.646q24.435 0 41.308-17.047 16.872-17.048 16.872-41.401 0-24.353-17.003-41.365-17.003-17.013-41.294-17.013-23.873 0-41.201 16.872-17.328 16.873-17.328 41.308v58.646Z"/></svg>