<svg xmlns="http://www.w3.org/2000/svg" height="48" viewBox="0 96 960 960" width="48"><path d="M113.391 701V451h152.435q23.565 0 40.565 17 17 17 17 40.565V568q0 23.791-17 40.396-17 16.604-40.565 16.604h-94.869v76h-57.566ZM373 701V451h57.13v89.435h99.74V451H587v250h-57.13V597.565h-99.74V701H373Zm283.609 0V451h152.434q23.566 0 40.566 17 17 17 17 40.565V568q0 23.791-17 40.396-17 16.604-40.566 16.604h-94.869v76h-57.565ZM170.957 568h94.869v-59.435h-94.869V568Zm543.217 0h94.869v-59.435h-94.869V568Z"/></svg>