<svg xmlns="http://www.w3.org/2000/svg" height="48" viewBox="0 96 960 960" width="48"><path d="m372.478 994.826-21-131.696q-14.869-4.869-32.956-15.304-18.087-10.435-30.392-20.304L165 883.652 55.913 689.739l111.261-81.565q-1-5.87-1.218-16.022-.217-10.152-.217-17.022 0-6.434.217-15.804.218-9.369 1.218-16.804L55.913 460.261 165 267.913l123.391 56.13q11.739-8.739 30.044-19.391Q336.739 294 351.478 289.13l21-132.956h216.044l20 132.391q15.869 4.87 34.108 15.522 18.24 10.652 30.109 19.956l123.826-56.13 108.522 192.348-113.261 80.13q1 8.435 2.283 18.305 1.282 9.869 1.282 17.304 0 7.435-1.282 16.804-1.283 9.37-1.848 16.805l112.391 80.13L795 883.652l-123.13-56.13q-12.305 9.869-30.457 20.804-18.152 10.935-31.891 14.804l-21 131.696H372.478ZM479 709.956q56.043 0 95.217-39.174 39.174-39.173 39.174-95.217 0-55.478-39.174-94.934-39.174-39.457-95.217-39.457-56.609 0-95.5 39.457-38.891 39.456-38.891 94.934 0 56.044 38.891 95.217 38.891 39.174 95.5 39.174Z"/></svg>