<svg xmlns="http://www.w3.org/2000/svg" height="48" viewBox="0 96 960 960" width="48"><path d="M479.72 253.392q-33.285 0-57.133-24.051-23.848-24.051-23.848-57.076 0-33.025 23.693-57.058t56.979-24.033q33.285 0 57.133 23.954 23.847 23.953 23.847 56.978 0 33.025-23.693 57.156-23.693 24.13-56.978 24.13ZM365.565 864.957V388.349q-63-5.565-126.021-15-63.022-9.435-120.022-23.87l19.696-75.826q81 20.435 168.061 29.935t172.26 9.5q85.2 0 173.004-9.5 87.805-9.5 169.37-29.935l19.13 75.826q-57.565 14.435-120.587 23.87-63.021 9.435-125.456 14.902v476.706h-76.957V628.566h-76.086v236.391h-76.392Zm-54.773 193.823q-18.125 0-31.263-12.96-13.138-12.96-13.138-31.25 0-18.294 13.128-31.433 13.128-13.138 31.253-13.138 18.126 0 30.981 13.325 12.856 13.325 12.856 31.746 0 18.17-12.846 30.94t-30.971 12.77Zm170.218 0q-18.125 0-30.698-12.96t-12.573-31.25q0-18.294 12.563-31.433 12.563-13.138 30.688-13.138t30.981 13.325q12.855 13.325 12.855 31.746 0 18.17-12.845 30.94-12.846 12.77-30.971 12.77Zm171.348 0q-18.125 0-30.981-12.96-12.855-12.96-12.855-31.25 0-18.294 12.846-31.433 12.845-13.138 30.97-13.138t30.981 13.325q12.855 13.325 12.855 31.746 0 18.17-12.845 30.94-12.846 12.77-30.971 12.77Z"/></svg>