<svg xmlns="http://www.w3.org/2000/svg" height="48" viewBox="0 96 960 960" width="48"><path d="M72.609 378.391V173.174h64.782v78.478q72.435-55.739 160.746-89.391 88.312-33.652 181.494-33.652 164.788 0 274.338 77.105 109.55 77.105 135.118 167.677h-68.348q-25.475-60-113.327-120t-227.412-60q-84.293 0-164.562 33.098-80.269 33.097-147.133 87.12h109.521v64.782H72.608Zm350.025 647.779q-18.207 0-35.573-7-17.365-7-29.851-19.381L142.087 786.13l64.565-67.047q14.783-14.865 35.435-23.496 20.652-8.63 42.522-2.196l65.217 15.566V394.391q0-45.643 32.196-77.908t77.739-32.265q45.543 0 77.978 32.265 32.435 32.265 32.435 77.908v170.87h17.565q4.468 0 10.759.717 6.291.718 13.129 4.283l148.329 66.304q26.508 10.778 38.08 37.172 11.573 26.394 7.442 55.003l-37.423 223.142q-4.952 32.87-30.495 53.578-25.543 20.71-58.995 20.71H422.634ZM414 956h281.565l42.87-249.87-183-83.434h-56.004V394.391q0-18-10.922-29t-28.794-11q-17.872 0-28.793 11-10.922 11-10.922 29v400.174L264.696 760.13l-23 23L414 956Zm0 0h281.565H414Z"/></svg>