<svg xmlns="http://www.w3.org/2000/svg" height="48" viewBox="0 96 960 960" width="48"><path d="M734.609 721.912q-57.738-58.819-90.891-130.185-33.152-71.367-33.152-165.803 0-91.403 32.804-161.707 32.804-70.304 88.978-130.478l55.782 55.348q-47.869 49.869-73.456 104.05-25.587 54.18-25.587 133.689 0 78.739 26.718 134.021 26.717 55.283 74.021 104.718l-55.217 56.347ZM875.87 574.955q-27.739-28.739-43.261-67.154-15.521-38.416-15.521-80.462 0-41.122 14.956-79.013 14.957-37.891 42.696-66.63l55.347 55.347q-17.304 19.435-26.108 41.275-8.805 21.84-8.805 49.231 0 27.964 9.087 50.294t25.826 40.516l-54.217 56.596Zm-514.337 20.088q-75.098 0-121.577-46.933-46.478-46.934-46.478-120.92t46.536-120.849q46.536-46.864 120.522-46.864t121.247 46.744q47.261 46.744 47.261 121.022t-46.206 121.039q-46.206 46.761-121.305 46.761Zm-337.62 356.87v-110.56q0-45.037 22.826-75.565t54.52-45.665q51.611-25.167 124.472-43.232 72.861-18.065 135.165-18.065 62.303 0 135.03 17.782 72.726 17.783 124.272 42.384 30.759 15.703 54.368 46.426 23.608 30.723 23.608 75.886v110.609H23.913Zm83.174-83.739h507.348v-25.212q0-14.968-8.472-27.036-8.472-12.067-23.789-22.187-48.082-26.565-108.338-39.152Q413.58 742 360.478 742q-53.101 0-113.506 14.152t-109.189 37.71q-12.865 7.825-21.781 21.173-8.915 13.349-8.915 28.067v25.072Zm254.154-356.87q36.324 0 60.194-23.437 23.869-23.437 23.869-60.587 0-36.324-23.849-60.476-23.85-24.152-60.391-24.152-36.542 0-60.477 23.998-23.935 23.998-23.935 61.09 0 36.825 23.936 60.194 23.935 23.37 60.653 23.37Zm.02-84.044Zm0 440.914Z"/></svg>